STARTFONT 2.1
COMMENT
COMMENT Converted from OpenType font "Font 90 Icons.ttf" by "otf2bdf 3.0".
COMMENT
FONT -FreeType-Font 90 Icons-Medium-R-Normal--22-160-100-100-P-83-ISO10646-1
SIZE 16 100 100
FONTBOUNDINGBOX 24 23 0 -5
STARTPROPERTIES 19
FOUNDRY "FreeType"
FAMILY_NAME "Font 90 Icons"
WEIGHT_NAME "Medium"
SLANT "R"
SETWIDTH_NAME "Normal"
ADD_STYLE_NAME ""
PIXEL_SIZE 22
POINT_SIZE 160
RESOLUTION_X 100
RESOLUTION_Y 100
SPACING "P"
AVERAGE_WIDTH 83
CHARSET_REGISTRY "ISO10646"
CHARSET_ENCODING "1"
FONT_ASCENT 18
FONT_DESCENT 4
COPYRIGHT "Typeface © (el-harrak.blogspot.com). <darrati10@gmail.com>. All Rights Reserved"
_OTF_FONTFILE "Font 90 Icons.ttf"
_OTF_PSNAME "Font 90 Icons"
ENDPROPERTIES
CHARS 242
STARTCHAR 0000
ENCODING 0
SWIDTH 0 0
DWIDTH 0 0
BBX 0 0 0 0
BITMAP
ENDCHAR
STARTCHAR 001D
ENCODING 29
SWIDTH 0 0
DWIDTH 0 0
BBX 0 0 0 0
BITMAP
ENDCHAR
STARTCHAR 0020
ENCODING 32
SWIDTH 225 0
DWIDTH 5 0
BBX 0 0 0 0
BITMAP
ENDCHAR
STARTCHAR 0021
ENCODING 33
SWIDTH 945 0
DWIDTH 21 0
BBX 21 22 0 -4
BITMAP
007800
03F700
0FFC80
1FFE40
3FFE20
3F8F10
7F8F10
7FFE08
FFFE08
FFFC08
FFF808
FF8008
FE0008
FC0008
7C0008
7C7010
3C7010
3C0020
1C0040
0E0080
038700
007800
ENDCHAR
STARTCHAR 0022
ENCODING 34
SWIDTH 945 0
DWIDTH 21 0
BBX 21 16 0 -1
BITMAP
01FC00
010400
3FFFF0
FFFFF8
FFFFF8
FFFFF8
FFFFF8
FFFFF8
FFFFF8
FFFFF8
FFFFF8
FFFFF8
FFFFF8
FFFFF8
FFFFF8
FFFFF8
ENDCHAR
STARTCHAR 0023
ENCODING 35
SWIDTH 945 0
DWIDTH 21 0
BBX 20 22 1 -4
BITMAP
07E000
DFFC00
DFFFC0
DFFFC0
FFFFE0
6FFFE0
6FFFE0
6FFFE0
6FFFE0
7FFFE0
7F07E0
3401F0
300020
300000
300000
380000
180000
180000
180000
180000
1C0000
1C0000
ENDCHAR
STARTCHAR 0024
ENCODING 36
SWIDTH 945 0
DWIDTH 21 0
BBX 21 22 0 -4
BITMAP
180000
3C0000
7E0000
FF0000
FF8000
7FC000
3FE000
1FF800
0FF800
0FF000
07E000
03F000
019800
010400
000200
000100
000080
000040
000020
000010
000008
000008
ENDCHAR
STARTCHAR 0025
ENCODING 37
SWIDTH 945 0
DWIDTH 21 0
BBX 20 22 1 -4
BITMAP
00E000
00F000
03F800
07FE00
5FFF60
FC67F0
F863F0
FC43E0
7E47E0
77FCE0
60F0E0
60F0E0
77FEE0
7E47E0
FC63E0
F863F0
FCE7F0
5FFF20
0FFE00
03F800
00F000
00E000
ENDCHAR
STARTCHAR 0026
ENCODING 38
SWIDTH 945 0
DWIDTH 21 0
BBX 21 22 0 -4
BITMAP
007000
03FE00
0E0180
18F8C0
33FE60
27FF30
6FFF90
4DFFD8
DEFBC8
DF77C8
9FAFE8
9FCFE8
DFFFC8
DFFFC8
4FFFD8
6FFF90
27FF30
33FE60
1878C0
0E0180
03FE00
003000
ENDCHAR
STARTCHAR 0027
ENCODING 39
SWIDTH 945 0
DWIDTH 21 0
BBX 21 22 0 -4
BITMAP
01C000
0FF800
1FFC00
3FFE00
781F00
718F00
F18700
F3E780
E7F380
E7F780
F18700
718700
780F00
3E3F80
1FFFC0
0FFFE0
03EFF0
0007F8
0003F8
0001F8
0000F8
000030
ENDCHAR
STARTCHAR 0028
ENCODING 40
SWIDTH 945 0
DWIDTH 21 0
BBX 21 22 0 -4
BITMAP
03E000
0FF800
1FFC00
3E7E00
780F00
700700
F00700
E7F780
EFF380
E00780
F00700
700700
780F00
3E7F80
1FFFC0
0FFFE0
03EFF0
0007F8
0003F8
0001F8
0000F8
000030
ENDCHAR
STARTCHAR 0029
ENCODING 41
SWIDTH 945 0
DWIDTH 21 0
BBX 21 16 0 -1
BITMAP
7FFFF8
E00018
F00038
B80068
9C00C8
8E0188
870308
838608
81CE08
83FB08
867188
8C00C8
980068
B00038
E00018
FFFFF8
ENDCHAR
STARTCHAR 002A
ENCODING 42
SWIDTH 945 0
DWIDTH 21 0
BBX 19 22 1 -4
BITMAP
00E000
00E000
00E000
00E000
00E000
08E200
0EEE00
0FFE00
07FC00
7FFFC0
FFFFA0
FFFF60
FFFEE0
FFFDE0
FFFBE0
FFF7E0
FDEBE0
FB9DE0
F7FEE0
EFFF60
DFFFE0
7FFFC0
ENDCHAR
STARTCHAR 002B
ENCODING 43
SWIDTH 945 0
DWIDTH 21 0
BBX 21 22 0 -4
BITMAP
FFFFF8
FFFFF8
FFFFF8
E1FC18
E3FE18
E1FE18
E0FC18
F9FCD8
FFFFF8
FFFFF8
FFFFF8
FFFFF8
FFFFF8
FFFEF8
F9FC58
E0FC18
E1FE18
E3FE18
E1FC18
FFFFF8
FFFFF8
FFFFF8
ENDCHAR
STARTCHAR 002C
ENCODING 44
SWIDTH 945 0
DWIDTH 21 0
BBX 21 22 0 -4
BITMAP
000040
000FE0
001FF0
003FF8
007F38
00FF38
01FFF8
03FFF8
07FFF8
0DFFF0
1CFFE0
327FC0
793F80
FC9F00
7E4E00
3F2C00
1F9800
0FF000
07E000
03C000
018000
008000
ENDCHAR
STARTCHAR 002D
ENCODING 45
SWIDTH 945 0
DWIDTH 21 0
BBX 21 22 0 -4
BITMAP
007000
03FE00
0E0380
1800C0
380260
240630
620E10
411E18
C1FE08
C1FE08
C1FE08
C1FE08
C1FE08
C1FE08
401E18
600F10
2006B0
300260
1800C0
0E0380
03FE00
007000
ENDCHAR
STARTCHAR 002E
ENCODING 46
SWIDTH 945 0
DWIDTH 21 0
BBX 18 22 2 -4
BITMAP
7FFF80
400080
400080
400080
400080
400080
400080
400080
400080
400080
7FFF80
000000
7FFF80
7FFF80
7FE180
7FFF80
7FFF80
004000
004000
004000
07F000
FFFFC0
ENDCHAR
STARTCHAR 002F
ENCODING 47
SWIDTH 945 0
DWIDTH 21 0
BBX 21 22 0 -4
BITMAP
207020
30FC20
11FC60
99FE48
D9FEC8
49FED8
49FED8
6DFED8
6DFED0
6DFED0
6DFED8
49FED8
49FED8
D9FEC8
D9FC48
10FC60
107820
207820
007800
007800
007800
007000
ENDCHAR
STARTCHAR 0030
ENCODING 48
SWIDTH 945 0
DWIDTH 21 0
BBX 21 22 0 -4
BITMAP
003000
03FE00
0FFF80
1FFFC0
3DFCE0
38FC70
70F870
607838
E07038
E0F818
E08C18
FF8FF8
FFDFF8
FFFFF8
7F87F8
7F07F0
3F03F0
3E03E0
1F03C0
0FFF80
03FF00
007000
ENDCHAR
STARTCHAR 0031
ENCODING 49
SWIDTH 945 0
DWIDTH 21 0
BBX 21 22 0 -4
BITMAP
007800
00F800
02FA00
06FB80
0EFBC0
1EFBE0
3CF9E0
78F8F0
70F870
70F838
70F838
F0F838
F00038
700038
700078
700070
7800F0
3C01E0
1F03E0
0FFFC0
07FF80
01FE00
ENDCHAR
STARTCHAR 0032
ENCODING 50
SWIDTH 945 0
DWIDTH 21 0
BBX 20 22 1 -4
BITMAP
00E000
00F000
00E000
00E000
40E060
F0E0F0
F861F0
FC43E0
3E47C0
07FC00
00F000
00F000
07FC00
3E47C0
FC63E0
F861F0
F0E0F0
40E020
00E000
00F000
00F000
00E000
ENDCHAR
STARTCHAR 0033
ENCODING 51
SWIDTH 945 0
DWIDTH 21 0
BBX 21 20 0 -3
BITMAP
002000
002000
007000
007000
00F800
00F800
01FC00
FFFFF8
7FFFF0
3FFFE0
1FFFC0
0FFF80
07FF00
07FF00
07FF00
07FF00
07FF80
078F80
0E0380
080080
ENDCHAR
STARTCHAR 0034
ENCODING 52
SWIDTH 945 0
DWIDTH 21 0
BBX 21 16 0 -1
BITMAP
7FFFF0
3FFFF0
DFFFE8
EFFFD8
F7FFB8
FBFF78
FDFEF8
FEFDF8
FE7BF8
FDB7F8
FBFFF8
F7FFF8
EFFFF8
DFFFF8
BFFFF8
7FFFF0
ENDCHAR
STARTCHAR 0035
ENCODING 53
SWIDTH 945 0
DWIDTH 21 0
BBX 21 17 0 -2
BITMAP
002000
005B80
01A780
027B80
0DFD80
13FE40
6FFFB0
DFFFC8
1FFFC0
1FFFC0
1F87C0
1F87C0
1F87C0
1F87C0
1F87C0
1F87C0
0F87C0
ENDCHAR
STARTCHAR 0036
ENCODING 54
SWIDTH 945 0
DWIDTH 21 0
BBX 21 22 0 -4
BITMAP
1C0180
1C03C0
1C03C0
080080
7F07E0
FF87F0
FF8FF0
FF8FD0
FF8BF8
FF9FF8
FF9FF8
FF97E8
FF87F0
360FF0
360FF0
3603C0
3603C0
3603C0
3603C0
3603C0
3603C0
3603C0
ENDCHAR
STARTCHAR 0037
ENCODING 55
SWIDTH 945 0
DWIDTH 21 0
BBX 21 16 0 -1
BITMAP
07E000
1E3800
3C3C00
3C1E00
7C3F00
7E7F00
C3E100
C3C100
C3C100
C3E300
7E3F00
7C3F00
3C1E00
3C3E08
1E7BF8
07E1C0
ENDCHAR
STARTCHAR 0038
ENCODING 56
SWIDTH 945 0
DWIDTH 21 0
BBX 17 22 2 -4
BITMAP
7FFF80
FFFF80
C00180
C00180
C00180
C00180
FFFF80
FFFF80
C63180
C63180
FFFF80
FFFF80
C63180
C63180
C63180
FFFF80
FFFF80
C63180
C63180
C63180
FFFF80
7FFF80
ENDCHAR
STARTCHAR 0039
ENCODING 57
SWIDTH 945 0
DWIDTH 21 0
BBX 21 20 0 -3
BITMAP
C00000
600000
300000
13FFF8
1BFFF0
09FFF0
0DFFF0
0DFFE0
0DFFE0
05FFC0
040000
040000
060000
07FFF0
03FFE0
000000
0700E0
0F81F0
0F81F0
0700E0
ENDCHAR
STARTCHAR 003A
ENCODING 58
SWIDTH 945 0
DWIDTH 21 0
BBX 21 22 0 -4
BITMAP
000100
000FE0
001FF0
003F30
007E18
007E18
007FF8
007FF8
007FF8
00BFF8
01BFF0
03DFE0
07E780
0FF800
1FE000
3F8000
7F8000
FC0000
FC0000
F80000
780000
300000
ENDCHAR
STARTCHAR 003B
ENCODING 59
SWIDTH 945 0
DWIDTH 21 0
BBX 21 22 0 -4
BITMAP
003000
003000
003000
003000
003000
003000
003000
003000
003000
003000
FFFFF8
FFFFF8
003000
003000
003000
003000
003000
003000
003000
003000
003000
003000
ENDCHAR
STARTCHAR 003C
ENCODING 60
SWIDTH 990 0
DWIDTH 22 0
BBX 21 18 0 -2
BITMAP
002000
003000
007000
007800
00DC00
01CC00
018600
030600
030300
060380
0E0180
0C01C0
1800C0
180060
300070
700030
600038
C00018
ENDCHAR
STARTCHAR 003D
ENCODING 61
SWIDTH 945 0
DWIDTH 21 0
BBX 21 22 0 -4
BITMAP
007000
038E00
0C0180
180040
37E020
231C10
430E10
430608
830608
830E08
831808
83F008
833808
831808
430C08
430610
238710
3440A0
180040
0C0180
038E00
007000
ENDCHAR
STARTCHAR 003E
ENCODING 62
SWIDTH 945 0
DWIDTH 21 0
BBX 21 22 0 -4
BITMAP
007000
038E00
0C0180
180040
307920
218710
430110
460108
8E0008
8C0008
8C0008
8C0008
8C0008
8E0008
460188
430110
218610
307820
180040
0C0180
038E00
007000
ENDCHAR
STARTCHAR 003F
ENCODING 63
SWIDTH 945 0
DWIDTH 21 0
BBX 21 22 0 -4
BITMAP
002000
03FE00
07FF80
1E03C0
3C00E0
380070
700030
600038
E00018
E00018
E00018
E00018
E00018
E00018
600038
700030
380070
3C00E0
1E03C0
0FFF80
03FE00
007000
ENDCHAR
STARTCHAR 0040
ENCODING 64
SWIDTH 945 0
DWIDTH 21 0
BBX 21 22 0 -4
BITMAP
002000
002000
003000
007000
007800
00F800
00FC00
01FC00
01FE00
03FE00
03FF00
07FF00
07FF80
0FFF80
0FFFC0
1FFFC0
1FFFE0
3FFFE0
3FFFF0
7FFFF0
7FFFF8
FFFFF8
ENDCHAR
STARTCHAR 0041
ENCODING 65
SWIDTH 945 0
DWIDTH 21 0
BBX 21 20 0 -3
BITMAP
808000
C0C000
F0E000
F8F800
FCFC00
FF7E00
FFBF80
FFDFC0
FFF7E0
FFFFF8
FFFBF8
FFF7E0
FFDFC0
FFBF80
FF7E00
FCFC00
F8F800
F0E000
C0C000
808000
ENDCHAR
STARTCHAR 0042
ENCODING 66
SWIDTH 945 0
DWIDTH 21 0
BBX 18 22 2 -4
BITMAP
8007C0
C007C0
F007C0
FC07C0
FE07C0
FF87C0
FFE7C0
FFF7C0
FFFFC0
FFFFC0
FFFFC0
FFFFC0
FFFFC0
FFFFC0
FFF7C0
FFE7C0
FF87C0
FE07C0
FC07C0
F007C0
C007C0
8007C0
ENDCHAR
STARTCHAR 0043
ENCODING 67
SWIDTH 945 0
DWIDTH 21 0
BBX 16 22 3 -4
BITMAP
FC7F
FC7F
FC7F
FC7F
FC7F
FC7F
FC7F
FC7F
FC7F
FC7F
FC7F
FC7F
FC7F
FC7F
FC7F
FC7F
FC7F
FC7F
FC7F
FC7F
FC7F
FC7F
ENDCHAR
STARTCHAR 0044
ENCODING 68
SWIDTH 945 0
DWIDTH 21 0
BBX 18 22 2 -4
BITMAP
800000
C00000
F00000
FC0000
FE0000
FF8000
FFC000
FFF000
FFFC00
FFFE00
FFFF80
FFFFC0
FFFF00
FFFC00
FFF000
FFE000
FF8000
FE0000
FC0000
F00000
C00000
800000
ENDCHAR
STARTCHAR 0045
ENCODING 69
SWIDTH 945 0
DWIDTH 21 0
BBX 21 22 0 -4
BITMAP
003000
03FE00
07FF80
1FFFC0
3FFFE0
3FFFF0
7FCFF0
7F03F8
FE01F8
FC01F8
FC01F8
FC01F8
FC01F8
FE01F8
7F03F8
7F8FF0
3FFFF0
3FFFE0
1FFFC0
0FFF80
03FE00
003000
ENDCHAR
STARTCHAR 0046
ENCODING 70
SWIDTH 945 0
DWIDTH 21 0
BBX 21 21 0 -4
BITMAP
FFFFF8
FFFFF8
FFFFF8
FFFFF8
FFFFF8
FFFFF8
FFFFF8
FFFFF8
FFFFF8
FFFFF8
FFFFF8
FFFFF8
FFFFF8
FFFFF8
FFFFF8
FFFFF8
FFFFF8
FFFFF8
FFFFF8
FFFFF8
FFFFF8
ENDCHAR
STARTCHAR 0047
ENCODING 71
SWIDTH 945 0
DWIDTH 21 0
BBX 19 22 1 -4
BITMAP
780020
7800E0
7801E0
7807E0
781FE0
783FE0
78FFE0
7BFFE0
7FFFE0
7FFFE0
7FFFE0
FFFFE0
7FFFE0
7FFFE0
7BFFE0
78FFE0
787FE0
781FE0
7807E0
7803E0
7800E0
780020
ENDCHAR
STARTCHAR 0048
ENCODING 72
SWIDTH 945 0
DWIDTH 21 0
BBX 21 20 0 -3
BITMAP
000408
001C18
003C38
007CF8
01FDF8
03FBF8
07EFF8
0FDFF8
3FBFF8
7EFFF8
FEFFF8
3FBFF8
0FDFF8
07EFF8
03FBF8
00FDF8
007CF8
003C38
001C18
000408
ENDCHAR
STARTCHAR 0049
ENCODING 73
SWIDTH 945 0
DWIDTH 21 0
BBX 21 22 0 -4
BITMAP
C80000
CC0000
CE0000
CE8000
CE6000
CE7000
CE7C00
CE7F00
CE7F80
CE7FE0
CE7FF0
CE7FF8
CE7FE0
CE7F80
CE7F00
CE7C00
CE7000
CE6000
CE8000
CE0000
CC0000
C80000
ENDCHAR
STARTCHAR 004A
ENCODING 74
SWIDTH 945 0
DWIDTH 21 0
BBX 21 20 0 -3
BITMAP
002000
007000
007800
00FC00
01FC00
03FE00
03FF00
07FF80
0FFF80
1FFFC0
1FFFE0
3FFFF0
7FFFF0
FFFFF8
000000
FFFFF8
FFFFF8
FFFFF8
FFFFF8
FFFFF8
ENDCHAR
STARTCHAR 004B
ENCODING 75
SWIDTH 945 0
DWIDTH 21 0
BBX 21 22 0 -4
BITMAP
000020
0000E0
0000E0
0001C0
0001C0
000380
000780
7FFF00
7FFF00
FFFF80
03FF80
003FC0
003FC0
0073E0
0071E0
00E1F0
07C0F8
0FC078
03C038
00E010
006000
004000
ENDCHAR
STARTCHAR 004C
ENCODING 76
SWIDTH 945 0
DWIDTH 21 0
BBX 18 22 2 -4
BITMAP
000200
000600
07E600
1FFF00
3FFF00
707F00
803F80
003F80
007FC0
00F000
000000
000000
038000
FF0000
FF0000
7E00C0
7F0300
7FFF00
3FFE00
3BF800
100000
100000
ENDCHAR
STARTCHAR 004D
ENCODING 77
SWIDTH 945 0
DWIDTH 21 0
BBX 21 18 0 -2
BITMAP
03F000
0FFC00
1FFE00
3C0F00
780380
700380
E001C0
E00FF8
E007F0
E003E0
E001E0
6000C0
700080
780000
3C0800
1FFC00
0FFC00
03F000
ENDCHAR
STARTCHAR 004E
ENCODING 78
SWIDTH 945 0
DWIDTH 21 0
BBX 21 16 0 -1
BITMAP
000020
000070
0000F8
0001F8
0003F0
7007E0
F80FC0
FC1F80
7E3F00
3F7E00
1FFC00
0FF800
07F000
03E000
01C000
008000
ENDCHAR
STARTCHAR 004F
ENCODING 79
SWIDTH 945 0
DWIDTH 21 0
BBX 21 22 0 -4
BITMAP
200000
FF0000
FFE000
7FF000
0FFC00
00FE00
003F00
7E1F80
FF87C0
FFC3C0
3FE3E0
03F1E0
00F8F0
007CF0
103CF8
7C3C78
7E1E78
FE1E78
FE1E78
7E1E78
7C1E38
100410
ENDCHAR
STARTCHAR 0050
ENCODING 80
SWIDTH 945 0
DWIDTH 21 0
BBX 20 22 1 -4
BITMAP
03F800
07FE00
0FFF00
1F0F80
3C0780
3C0380
3803C0
3801C0
3801C0
3801C0
FFFFF0
FFFFF0
FFFFF0
FF1FF0
FF1FF0
FF9FF0
FF9FF0
FF9FF0
FF9FF0
FFFFF0
FFFFF0
FFFFF0
ENDCHAR
STARTCHAR 0051
ENCODING 81
SWIDTH 945 0
DWIDTH 21 0
BBX 21 22 0 -4
BITMAP
0FFF80
0FFF80
0FFF80
0FFF80
0FFF80
0FFF80
0FFF80
0FFF80
002000
002000
002000
0FFF80
080040
080040
FF8FF8
FF8FF8
FF8FF8
FF8FF8
FF8FF8
FF8FF8
FF8FF8
FF8FF8
ENDCHAR
STARTCHAR 0052
ENCODING 82
SWIDTH 945 0
DWIDTH 21 0
BBX 21 12 0 1
BITMAP
00C000
006000
1FFBC0
3FFBF0
7FF3F8
E0E038
E08018
E00018
E00038
700078
7FFFF0
1FFFE0
ENDCHAR
STARTCHAR 0053
ENCODING 83
SWIDTH 945 0
DWIDTH 21 0
BBX 21 18 0 -2
BITMAP
000200
000700
000F80
FF9FC0
FFBFE0
FF7FF0
FEF778
E0CF18
EFFF78
EFFF78
DFFF78
DFFF70
DFFF70
FFFF70
BFF8F0
BFFFE0
3FFFE0
7FFFE0
ENDCHAR
STARTCHAR 0054
ENCODING 84
SWIDTH 945 0
DWIDTH 21 0
BBX 21 22 0 -4
BITMAP
003000
03FE00
0FFF80
1FFFC0
3E03E0
3E00F0
7F0070
738078
F1C038
E0E038
E07038
E03838
E01C38
F00E38
700778
7803F0
3C01F0
3E03E0
1FFFC0
0FFF80
03FE00
003000
ENDCHAR
STARTCHAR 0055
ENCODING 85
SWIDTH 945 0
DWIDTH 21 0
BBX 21 18 0 -2
BITMAP
003000
007000
00F000
01F000
03F000
FFF000
FFF000
FFF000
FFF3F8
FFF3F8
FFF000
FFF000
FFF000
03F000
01F000
00F000
007000
003000
ENDCHAR
STARTCHAR 0056
ENCODING 86
SWIDTH 945 0
DWIDTH 21 0
BBX 21 20 0 -3
BITMAP
001000
003000
007000
00F000
01F000
03F000
FFF0E0
FFF0E0
FFF0E0
FFF7F8
FFF7F8
FFF0E0
FFF0E0
FFF0E0
03F000
01F000
00F000
007000
003000
001000
ENDCHAR
STARTCHAR 0057
ENCODING 87
SWIDTH 945 0
DWIDTH 21 0
BBX 21 20 0 -3
BITMAP
1F03E0
7F8FF0
7FDFF8
FFDFF8
FFFFF8
FFFFF8
7FFFF8
7FFFF8
3FFFF0
1FFFE0
0FFFC0
07FF80
03FF00
01FE00
00FC00
007800
007800
003000
002000
002000
ENDCHAR
STARTCHAR 0058
ENCODING 88
SWIDTH 945 0
DWIDTH 21 0
BBX 18 22 2 -4
BITMAP
0C0000
0C0000
0C0000
0C0000
0C0000
0C0000
0CC000
0CC800
0CDD80
CCDDC0
CFFFC0
CFFFC0
CFFFC0
CFFFC0
FFFFC0
FFFFC0
FFFFC0
7FFFC0
3FFFC0
3FFFC0
1FFFC0
0FFF80
ENDCHAR
STARTCHAR 0059
ENCODING 89
SWIDTH 945 0
DWIDTH 21 0
BBX 16 22 3 -4
BITMAP
0180
0180
19B0
19B0
19B2
19B3
19B3
19B3
19B3
19B3
D9B3
DFFF
DFFF
DFFF
DFFF
FFFF
FFFF
7FFF
7FFF
3FFF
3FFF
1FFE
ENDCHAR
STARTCHAR 005A
ENCODING 90
SWIDTH 945 0
DWIDTH 21 0
BBX 21 22 0 -4
BITMAP
000060
001860
001830
003830
007930
00F998
01F998
FFF998
FFF998
FFF8D8
FFF8D8
FFF8D8
FFF8D8
FFF998
FFF998
7FF998
01F998
00F930
007930
003820
001860
000840
ENDCHAR
STARTCHAR 005B
ENCODING 91
SWIDTH 945 0
DWIDTH 21 0
BBX 21 20 0 -3
BITMAP
C00000
F00000
FC0000
FF0000
FFC000
FFF000
FFFC00
FFFF00
FFFFC0
FFFFF0
FFFFF8
FFFFC0
FFFF00
FFFC00
FFF000
FFC000
FF0000
FC0000
F00000
C00000
ENDCHAR
STARTCHAR 005C
ENCODING 92
SWIDTH 945 0
DWIDTH 21 0
BBX 21 22 0 -4
BITMAP
FFFFF8
7FFFF8
7FFFF0
3FFFF0
3FFFE0
1FFFE0
1FFFC0
0FFFC0
0FFF80
07FF80
07FF00
03FF00
03FE00
01FE00
01FC00
00FC00
00F800
007800
007000
003000
002000
002000
ENDCHAR
STARTCHAR 005D
ENCODING 93
SWIDTH 945 0
DWIDTH 21 0
BBX 21 22 0 -4
BITMAP
000008
000018
000078
0001F8
0007F8
001FF8
007FF8
01FFF8
07FFF8
1FFFF8
7FFFF8
FFFFF8
1FFFF8
07FFF8
01FFF8
007FF8
001FF8
0007F8
0001F8
000078
000018
000008
ENDCHAR
STARTCHAR 005E
ENCODING 94
SWIDTH 945 0
DWIDTH 21 0
BBX 21 8 0 3
BITMAP
100040
100020
200030
7FFFF8
FFFFF8
200030
100020
100040
ENDCHAR
STARTCHAR 005F
ENCODING 95
SWIDTH 945 0
DWIDTH 21 0
BBX 8 22 7 -4
BITMAP
10
38
7E
99
18
18
18
18
18
18
18
18
18
18
18
18
18
18
99
7E
3C
18
ENDCHAR
STARTCHAR 0060
ENCODING 96
SWIDTH 945 0
DWIDTH 21 0
BBX 8 22 7 -4
BITMAP
18
18
18
18
18
18
18
18
18
18
18
18
18
18
18
18
18
18
99
7E
3C
18
ENDCHAR
STARTCHAR 0061
ENCODING 97
SWIDTH 945 0
DWIDTH 21 0
BBX 21 12 0 1
BITMAP
000020
01F060
07FC60
0FFFE0
1FFFE0
3FFFF0
301FF0
600FF0
800FF0
001FF8
003FF8
007FF8
ENDCHAR
STARTCHAR 0062
ENCODING 98
SWIDTH 945 0
DWIDTH 21 0
BBX 21 12 0 1
BITMAP
100000
103C00
18FF00
1BFF80
3FFFC0
3FFFE0
3FE070
3F8010
7FC008
7FE008
7FE000
FFF800
ENDCHAR
STARTCHAR 0063
ENCODING 99
SWIDTH 945 0
DWIDTH 21 0
BBX 21 23 0 -5
BITMAP
007800
00F800
00F800
00F800
00F800
00F800
00F800
00F800
00F800
00F800
60F838
F8F8F8
FEFBF8
7FFFF8
3FFFF0
1FFFE0
0FFFC0
07FF80
03FF00
01FE00
00FC00
007800
002000
ENDCHAR
STARTCHAR 0064
ENCODING 100
SWIDTH 945 0
DWIDTH 21 0
BBX 21 21 0 -3
BITMAP
0000E0
0001F0
7003F8
7807F8
F80FF8
F81FF0
FC3FE0
FC7FC0
FCFF80
FFFF00
FFFE00
FFFC00
FFF800
FFF000
FFF000
FFFC00
FFFF80
FFFFE0
FFFFE0
7FFFE0
7FFFC0
ENDCHAR
STARTCHAR 0065
ENCODING 101
SWIDTH 945 0
DWIDTH 21 0
BBX 21 21 0 -3
BITMAP
180000
3C0000
7E0030
FF0078
7F80F8
3FC0F8
1FE0F8
0FF1F8
07F9F8
03FDF8
01FFF8
00FFF8
007FF8
003FF8
003FF8
01FFF8
0FFFF8
1FFFF8
3FFFF8
3FFFF8
1FFFF0
ENDCHAR
STARTCHAR 0066
ENCODING 102
SWIDTH 945 0
DWIDTH 21 0
BBX 21 19 0 -2
BITMAP
00F000
01F000
03E000
07E000
0FC000
1FC000
3F8000
7FFFF8
FFFFF8
FFFFF8
FFFFF8
7FFFF8
3F8000
1FC000
0FC000
07E000
03E000
01F000
00F000
ENDCHAR
STARTCHAR 0067
ENCODING 103
SWIDTH 945 0
DWIDTH 21 0
BBX 21 20 0 -3
BITMAP
003800
003C00
003E00
003F00
001F80
001FC0
000FE0
000FF0
FFFFF8
FFFFF8
FFFFF8
FFFFF8
7FFFF0
000FE0
001FC0
001F80
003F00
003E00
003C00
003800
ENDCHAR
STARTCHAR 0068
ENCODING 104
SWIDTH 945 0
DWIDTH 21 0
BBX 21 22 0 -4
BITMAP
007000
00F800
01FC00
03FE00
07FF00
0FFF80
1FFFC0
3FFFE0
7FFFF0
FFFFF8
FCFCF8
70FC38
00FC00
00FC00
00FC00
00FC00
00FC00
00FC00
00FC00
00FC00
00FC00
007800
ENDCHAR
STARTCHAR 0069
ENCODING 105
SWIDTH 945 0
DWIDTH 21 0
BBX 21 22 0 -4
BITMAP
3FFFC0
7FFFE0
FFFFE0
FFFFE0
FFFFC0
FFFF00
FFF800
FFE000
FFF000
FFF800
FFFC00
FFFE00
FCFF00
FC7F80
FC3FC0
F81FE0
F80FF0
F807F8
7003F8
2001F8
0000F0
000040
ENDCHAR
STARTCHAR 006A
ENCODING 106
SWIDTH 945 0
DWIDTH 21 0
BBX 21 22 0 -4
BITMAP
0FFFF0
3FFFF8
3FFFF8
3FFFF8
1FFFF8
03FFF8
007FF8
003FF8
007FF8
00FFF8
01FFF8
03FFF8
07FDF8
0FF9F8
1FF0F8
3FE0F8
7FC0F8
FF8078
FF0078
7E0020
3C0000
180000
ENDCHAR
STARTCHAR 006B
ENCODING 107
SWIDTH 945 0
DWIDTH 21 0
BBX 21 18 0 -2
BITMAP
000800
000C00
000E00
000F00
00FF80
07FFC0
1FFFE0
3FFFF0
3FFFF8
7FFFF8
7C1FE0
F01F80
E03F00
C03C00
C03000
802000
800000
800000
ENDCHAR
STARTCHAR 006C
ENCODING 108
SWIDTH 1080 0
DWIDTH 24 0
BBX 24 20 0 -3
BITMAP
002000
006000
00E000
01E000
03E000
07FF80
0FFFE0
1FFFF0
3FFFF8
7FFFFC
FFFFFE
3FF07E
0FF01E
03F00E
01F006
007006
001802
000802
000001
000001
ENDCHAR
STARTCHAR 006D
ENCODING 109
SWIDTH 945 0
DWIDTH 21 0
BBX 19 22 1 -4
BITMAP
03F800
03F800
03F800
03F800
03F800
03F800
03F800
03F800
03F800
03F800
03F800
03F800
FFFFE0
3FFFC0
1FFF80
1FFF00
0FFE00
07FC00
03F800
01F000
00E000
006000
ENDCHAR
STARTCHAR 006E
ENCODING 110
SWIDTH 945 0
DWIDTH 21 0
BBX 21 18 0 -2
BITMAP
004000
00C000
01C000
03C000
07C000
0FFFF8
1FFFF8
3FFFF8
FFFFF8
7FFFF8
3FFFF8
1FFFF8
0FC000
07C000
03C000
01C000
00C000
004000
ENDCHAR
STARTCHAR 006F
ENCODING 111
SWIDTH 945 0
DWIDTH 21 0
BBX 21 18 0 -2
BITMAP
001000
000800
000C00
000E00
000F00
FFFF80
FFFFE0
FFFFF0
FFFFF8
FFFFF8
FFFFF0
FFFFE0
000F80
000F00
000E00
000C00
000800
001000
ENDCHAR
STARTCHAR 0070
ENCODING 112
SWIDTH 945 0
DWIDTH 21 0
BBX 19 22 1 -4
BITMAP
004000
00E000
01F000
03F800
07FC00
0FFE00
0FFF00
1FFF80
3FFFC0
FFFFE0
03F800
03F800
03F800
03F800
03F800
03F800
03F800
03F800
03F800
03F800
03F800
03F800
ENDCHAR
STARTCHAR 0071
ENCODING 113
SWIDTH 945 0
DWIDTH 21 0
BBX 19 22 1 -4
BITMAP
000400
000C00
000E00
001E00
001F00
003F80
F07F80
F07FC0
F0FFC0
F0FFE0
F11E00
F01E00
F01E00
F01E00
F01E00
F01E00
F01E00
783E00
7C7C00
3FF800
1FF000
0FE000
ENDCHAR
STARTCHAR 0072
ENCODING 114
SWIDTH 945 0
DWIDTH 21 0
BBX 21 18 0 -2
BITMAP
004000
01C000
03C000
0FC000
3FFF80
FFFFE0
3FFFF0
1FC1F0
07C078
01C038
004038
000038
000038
000078
0001F0
03FFF0
03FFE0
03FF80
ENDCHAR
STARTCHAR 0073
ENCODING 115
SWIDTH 945 0
DWIDTH 21 0
BBX 21 16 0 -1
BITMAP
03FE00
0FFFC0
3FFFE0
7FFFF0
7FFFF8
FFFFF8
FFFFF8
FFFFF8
FFFFF8
7FFFF8
3FFFF0
1FFFE0
0FFF80
01FC00
00C000
038000
ENDCHAR
STARTCHAR 0074
ENCODING 116
SWIDTH 945 0
DWIDTH 21 0
BBX 21 18 0 -2
BITMAP
7FFFF8
FFFFF8
FFFFF8
FFFFF8
FFFFF8
FFFFF8
FFFFF8
FFFFF8
FFFFF8
FFFFF8
FFFFF8
FFFFF8
FFFFF8
7FFFF8
006000
00C000
008000
010000
ENDCHAR
STARTCHAR 0075
ENCODING 117
SWIDTH 945 0
DWIDTH 21 0
BBX 21 16 0 -1
BITMAP
03FF00
0FFFC0
3FFFE0
7FFFF0
7FFFF8
FFFFF8
FFFFF8
FFFFF8
FFFFF8
7FFFF8
3FFFF0
1FFFE0
07FF80
01FE00
001C00
000700
ENDCHAR
STARTCHAR 0076
ENCODING 118
SWIDTH 945 0
DWIDTH 21 0
BBX 21 18 0 -2
BITMAP
7FFFF8
FFFFF8
FFFFF8
FFFFF8
FFFFF8
FFFFF8
FFFFF8
FFFFF8
FFFFF8
FFFFF8
FFFFF8
FFFFF8
FFFFF8
7FFFF8
003800
001800
000C00
000400
ENDCHAR
STARTCHAR 0077
ENCODING 119
SWIDTH 945 0
DWIDTH 21 0
BBX 21 22 0 -4
BITMAP
002000
007800
007800
1CF9C0
1FFFE0
1FFFE0
1FFFC0
0FFF80
1F0780
7F03F8
FE03F8
FE03F8
7F03F8
1F0780
0FFF80
1FFFC0
1FFFE0
1FFBE0
1C79C0
007800
007800
002000
ENDCHAR
STARTCHAR 0078
ENCODING 120
SWIDTH 945 0
DWIDTH 21 0
BBX 21 18 0 -2
BITMAP
240000
3C0000
3F0000
E30000
231CC0
779FE0
FEFFC0
1EFFC0
10F9F8
0070F8
007070
01F0E0
01F8F0
00BFF8
003FB0
003F80
003380
000180
ENDCHAR
STARTCHAR 0079
ENCODING 121
SWIDTH 945 0
DWIDTH 21 0
BBX 21 18 0 -1
BITMAP
03F0E0
0FF9F0
0F0380
1F83F8
3F83F0
F1C7E0
70EFC0
307F00
003C00
007E00
00FF00
03E780
07C3C0
0F81E0
1F01F0
3E00F8
7C0078
380030
ENDCHAR
STARTCHAR 007A
ENCODING 122
SWIDTH 945 0
DWIDTH 21 0
BBX 21 22 0 -4
BITMAP
000400
000800
001800
003800
003000
003000
007000
007000
006000
006078
3EEFE0
7FFFC0
E7FE00
EFE000
7EE000
39F000
03B000
033000
033000
03E000
03E000
008000
ENDCHAR
STARTCHAR 007B
ENCODING 123
SWIDTH 945 0
DWIDTH 21 0
BBX 21 20 0 -3
BITMAP
0003C0
0001C0
0001E0
000160
000030
000018
000018
000018
000018
C00018
C00018
C00018
600018
600030
700030
380060
1C00E0
0F03C0
07FF00
00FC00
ENDCHAR
STARTCHAR 007C
ENCODING 124
SWIDTH 945 0
DWIDTH 21 0
BBX 21 20 0 -3
BITMAP
1E0000
0E0000
1E0000
320000
700000
600000
600000
C00000
C00000
C00018
C00018
C00018
600018
600030
700030
300060
1C00E0
0F03C0
07FF00
01FC00
ENDCHAR
STARTCHAR 007D
ENCODING 125
SWIDTH 495 0
DWIDTH 11 0
BBX 0 0 0 0
BITMAP
ENDCHAR
STARTCHAR 007E
ENCODING 126
SWIDTH 495 0
DWIDTH 11 0
BBX 0 0 0 0
BITMAP
ENDCHAR
STARTCHAR 00A0
ENCODING 160
SWIDTH 225 0
DWIDTH 5 0
BBX 0 0 0 0
BITMAP
ENDCHAR
STARTCHAR 00A1
ENCODING 161
SWIDTH 315 0
DWIDTH 7 0
BBX 0 0 0 0
BITMAP
ENDCHAR
STARTCHAR 00A2
ENCODING 162
SWIDTH 540 0
DWIDTH 12 0
BBX 0 0 0 0
BITMAP
ENDCHAR
STARTCHAR 00A3
ENCODING 163
SWIDTH 495 0
DWIDTH 11 0
BBX 0 0 0 0
BITMAP
ENDCHAR
STARTCHAR 00A4
ENCODING 164
SWIDTH 495 0
DWIDTH 11 0
BBX 0 0 0 0
BITMAP
ENDCHAR
STARTCHAR 00A5
ENCODING 165
SWIDTH 630 0
DWIDTH 14 0
BBX 0 0 0 0
BITMAP
ENDCHAR
STARTCHAR 00A6
ENCODING 166
SWIDTH 495 0
DWIDTH 11 0
BBX 0 0 0 0
BITMAP
ENDCHAR
STARTCHAR 00A7
ENCODING 167
SWIDTH 495 0
DWIDTH 11 0
BBX 0 0 0 0
BITMAP
ENDCHAR
STARTCHAR 00A8
ENCODING 168
SWIDTH 495 0
DWIDTH 11 0
BBX 0 0 0 0
BITMAP
ENDCHAR
STARTCHAR 00A9
ENCODING 169
SWIDTH 810 0
DWIDTH 18 0
BBX 0 0 0 0
BITMAP
ENDCHAR
STARTCHAR 00AA
ENCODING 170
SWIDTH 315 0
DWIDTH 7 0
BBX 0 0 0 0
BITMAP
ENDCHAR
STARTCHAR 00AB
ENCODING 171
SWIDTH 450 0
DWIDTH 10 0
BBX 0 0 0 0
BITMAP
ENDCHAR
STARTCHAR 00AC
ENCODING 172
SWIDTH 495 0
DWIDTH 11 0
BBX 0 0 0 0
BITMAP
ENDCHAR
STARTCHAR 00AD
ENCODING 173
SWIDTH 945 0
DWIDTH 21 0
BBX 21 22 0 -4
BITMAP
007000
03FE00
0E0380
1800C0
380260
240630
620E10
411E18
C1FE08
C1FE08
C1FE08
C1FE08
C1FE08
C1FE08
401E18
600F10
2006B0
300260
1800C0
0E0380
03FE00
007000
ENDCHAR
STARTCHAR 00AE
ENCODING 174
SWIDTH 810 0
DWIDTH 18 0
BBX 0 0 0 0
BITMAP
ENDCHAR
STARTCHAR 00AF
ENCODING 175
SWIDTH 315 0
DWIDTH 7 0
BBX 0 0 0 0
BITMAP
ENDCHAR
STARTCHAR 00B0
ENCODING 176
SWIDTH 315 0
DWIDTH 7 0
BBX 0 0 0 0
BITMAP
ENDCHAR
STARTCHAR 00B1
ENCODING 177
SWIDTH 495 0
DWIDTH 11 0
BBX 0 0 0 0
BITMAP
ENDCHAR
STARTCHAR 00B2
ENCODING 178
SWIDTH 495 0
DWIDTH 11 0
BBX 0 0 0 0
BITMAP
ENDCHAR
STARTCHAR 00B3
ENCODING 179
SWIDTH 495 0
DWIDTH 11 0
BBX 0 0 0 0
BITMAP
ENDCHAR
STARTCHAR 00B4
ENCODING 180
SWIDTH 495 0
DWIDTH 11 0
BBX 0 0 0 0
BITMAP
ENDCHAR
STARTCHAR 00B5
ENCODING 181
SWIDTH 585 0
DWIDTH 13 0
BBX 0 0 0 0
BITMAP
ENDCHAR
STARTCHAR 00B6
ENCODING 182
SWIDTH 495 0
DWIDTH 11 0
BBX 0 0 0 0
BITMAP
ENDCHAR
STARTCHAR 00B7
ENCODING 183
SWIDTH 225 0
DWIDTH 5 0
BBX 0 0 0 0
BITMAP
ENDCHAR
STARTCHAR 00B8
ENCODING 184
SWIDTH 495 0
DWIDTH 11 0
BBX 0 0 0 0
BITMAP
ENDCHAR
STARTCHAR 00B9
ENCODING 185
SWIDTH 495 0
DWIDTH 11 0
BBX 0 0 0 0
BITMAP
ENDCHAR
STARTCHAR 00BA
ENCODING 186
SWIDTH 360 0
DWIDTH 8 0
BBX 0 0 0 0
BITMAP
ENDCHAR
STARTCHAR 00BB
ENCODING 187
SWIDTH 450 0
DWIDTH 10 0
BBX 0 0 0 0
BITMAP
ENDCHAR
STARTCHAR 00BC
ENCODING 188
SWIDTH 810 0
DWIDTH 18 0
BBX 0 0 0 0
BITMAP
ENDCHAR
STARTCHAR 00BD
ENCODING 189
SWIDTH 945 0
DWIDTH 21 0
BBX 0 0 0 0
BITMAP
ENDCHAR
STARTCHAR 00BE
ENCODING 190
SWIDTH 810 0
DWIDTH 18 0
BBX 0 0 0 0
BITMAP
ENDCHAR
STARTCHAR 00BF
ENCODING 191
SWIDTH 360 0
DWIDTH 8 0
BBX 0 0 0 0
BITMAP
ENDCHAR
STARTCHAR 00C0
ENCODING 192
SWIDTH 765 0
DWIDTH 17 0
BBX 0 0 0 0
BITMAP
ENDCHAR
STARTCHAR 00C1
ENCODING 193
SWIDTH 765 0
DWIDTH 17 0
BBX 0 0 0 0
BITMAP
ENDCHAR
STARTCHAR 00C2
ENCODING 194
SWIDTH 765 0
DWIDTH 17 0
BBX 0 0 0 0
BITMAP
ENDCHAR
STARTCHAR 00C3
ENCODING 195
SWIDTH 765 0
DWIDTH 17 0
BBX 0 0 0 0
BITMAP
ENDCHAR
STARTCHAR 00C4
ENCODING 196
SWIDTH 765 0
DWIDTH 17 0
BBX 0 0 0 0
BITMAP
ENDCHAR
STARTCHAR 00C5
ENCODING 197
SWIDTH 765 0
DWIDTH 17 0
BBX 0 0 0 0
BITMAP
ENDCHAR
STARTCHAR 00C6
ENCODING 198
SWIDTH 1035 0
DWIDTH 23 0
BBX 0 0 0 0
BITMAP
ENDCHAR
STARTCHAR 00C7
ENCODING 199
SWIDTH 675 0
DWIDTH 15 0
BBX 0 0 0 0
BITMAP
ENDCHAR
STARTCHAR 00C8
ENCODING 200
SWIDTH 540 0
DWIDTH 12 0
BBX 0 0 0 0
BITMAP
ENDCHAR
STARTCHAR 00C9
ENCODING 201
SWIDTH 540 0
DWIDTH 12 0
BBX 0 0 0 0
BITMAP
ENDCHAR
STARTCHAR 00CA
ENCODING 202
SWIDTH 540 0
DWIDTH 12 0
BBX 0 0 0 0
BITMAP
ENDCHAR
STARTCHAR 00CB
ENCODING 203
SWIDTH 540 0
DWIDTH 12 0
BBX 0 0 0 0
BITMAP
ENDCHAR
STARTCHAR 00CC
ENCODING 204
SWIDTH 315 0
DWIDTH 7 0
BBX 0 0 0 0
BITMAP
ENDCHAR
STARTCHAR 00CD
ENCODING 205
SWIDTH 315 0
DWIDTH 7 0
BBX 0 0 0 0
BITMAP
ENDCHAR
STARTCHAR 00CE
ENCODING 206
SWIDTH 315 0
DWIDTH 7 0
BBX 0 0 0 0
BITMAP
ENDCHAR
STARTCHAR 00CF
ENCODING 207
SWIDTH 315 0
DWIDTH 7 0
BBX 0 0 0 0
BITMAP
ENDCHAR
STARTCHAR 00D0
ENCODING 208
SWIDTH 720 0
DWIDTH 16 0
BBX 0 0 0 0
BITMAP
ENDCHAR
STARTCHAR 00D1
ENCODING 209
SWIDTH 765 0
DWIDTH 17 0
BBX 0 0 0 0
BITMAP
ENDCHAR
STARTCHAR 00D2
ENCODING 210
SWIDTH 765 0
DWIDTH 17 0
BBX 0 0 0 0
BITMAP
ENDCHAR
STARTCHAR 00D3
ENCODING 211
SWIDTH 765 0
DWIDTH 17 0
BBX 0 0 0 0
BITMAP
ENDCHAR
STARTCHAR 00D4
ENCODING 212
SWIDTH 765 0
DWIDTH 17 0
BBX 0 0 0 0
BITMAP
ENDCHAR
STARTCHAR 00D5
ENCODING 213
SWIDTH 765 0
DWIDTH 17 0
BBX 0 0 0 0
BITMAP
ENDCHAR
STARTCHAR 00D6
ENCODING 214
SWIDTH 765 0
DWIDTH 17 0
BBX 0 0 0 0
BITMAP
ENDCHAR
STARTCHAR 00D7
ENCODING 215
SWIDTH 495 0
DWIDTH 11 0
BBX 0 0 0 0
BITMAP
ENDCHAR
STARTCHAR 00D8
ENCODING 216
SWIDTH 765 0
DWIDTH 17 0
BBX 0 0 0 0
BITMAP
ENDCHAR
STARTCHAR 00D9
ENCODING 217
SWIDTH 720 0
DWIDTH 16 0
BBX 0 0 0 0
BITMAP
ENDCHAR
STARTCHAR 00DA
ENCODING 218
SWIDTH 720 0
DWIDTH 16 0
BBX 0 0 0 0
BITMAP
ENDCHAR
STARTCHAR 00DB
ENCODING 219
SWIDTH 720 0
DWIDTH 16 0
BBX 0 0 0 0
BITMAP
ENDCHAR
STARTCHAR 00DC
ENCODING 220
SWIDTH 720 0
DWIDTH 16 0
BBX 0 0 0 0
BITMAP
ENDCHAR
STARTCHAR 00DD
ENCODING 221
SWIDTH 585 0
DWIDTH 13 0
BBX 0 0 0 0
BITMAP
ENDCHAR
STARTCHAR 00DE
ENCODING 222
SWIDTH 540 0
DWIDTH 12 0
BBX 0 0 0 0
BITMAP
ENDCHAR
STARTCHAR 00DF
ENCODING 223
SWIDTH 585 0
DWIDTH 13 0
BBX 0 0 0 0
BITMAP
ENDCHAR
STARTCHAR 00E0
ENCODING 224
SWIDTH 450 0
DWIDTH 10 0
BBX 0 0 0 0
BITMAP
ENDCHAR
STARTCHAR 00E1
ENCODING 225
SWIDTH 450 0
DWIDTH 10 0
BBX 0 0 0 0
BITMAP
ENDCHAR
STARTCHAR 00E2
ENCODING 226
SWIDTH 450 0
DWIDTH 10 0
BBX 0 0 0 0
BITMAP
ENDCHAR
STARTCHAR 00E3
ENCODING 227
SWIDTH 450 0
DWIDTH 10 0
BBX 0 0 0 0
BITMAP
ENDCHAR
STARTCHAR 00E4
ENCODING 228
SWIDTH 450 0
DWIDTH 10 0
BBX 0 0 0 0
BITMAP
ENDCHAR
STARTCHAR 00E5
ENCODING 229
SWIDTH 450 0
DWIDTH 10 0
BBX 0 0 0 0
BITMAP
ENDCHAR
STARTCHAR 00E6
ENCODING 230
SWIDTH 720 0
DWIDTH 16 0
BBX 0 0 0 0
BITMAP
ENDCHAR
STARTCHAR 00E7
ENCODING 231
SWIDTH 450 0
DWIDTH 10 0
BBX 0 0 0 0
BITMAP
ENDCHAR
STARTCHAR 00E8
ENCODING 232
SWIDTH 450 0
DWIDTH 10 0
BBX 0 0 0 0
BITMAP
ENDCHAR
STARTCHAR 00E9
ENCODING 233
SWIDTH 450 0
DWIDTH 10 0
BBX 0 0 0 0
BITMAP
ENDCHAR
STARTCHAR 00EA
ENCODING 234
SWIDTH 450 0
DWIDTH 10 0
BBX 0 0 0 0
BITMAP
ENDCHAR
STARTCHAR 00EB
ENCODING 235
SWIDTH 450 0
DWIDTH 10 0
BBX 0 0 0 0
BITMAP
ENDCHAR
STARTCHAR 00EC
ENCODING 236
SWIDTH 270 0
DWIDTH 6 0
BBX 0 0 0 0
BITMAP
ENDCHAR
STARTCHAR 00ED
ENCODING 237
SWIDTH 270 0
DWIDTH 6 0
BBX 0 0 0 0
BITMAP
ENDCHAR
STARTCHAR 00EE
ENCODING 238
SWIDTH 270 0
DWIDTH 6 0
BBX 0 0 0 0
BITMAP
ENDCHAR
STARTCHAR 00EF
ENCODING 239
SWIDTH 270 0
DWIDTH 6 0
BBX 0 0 0 0
BITMAP
ENDCHAR
STARTCHAR 00F0
ENCODING 240
SWIDTH 540 0
DWIDTH 12 0
BBX 0 0 0 0
BITMAP
ENDCHAR
STARTCHAR 00F1
ENCODING 241
SWIDTH 540 0
DWIDTH 12 0
BBX 0 0 0 0
BITMAP
ENDCHAR
STARTCHAR 00F2
ENCODING 242
SWIDTH 495 0
DWIDTH 11 0
BBX 0 0 0 0
BITMAP
ENDCHAR
STARTCHAR 00F3
ENCODING 243
SWIDTH 495 0
DWIDTH 11 0
BBX 0 0 0 0
BITMAP
ENDCHAR
STARTCHAR 00F4
ENCODING 244
SWIDTH 495 0
DWIDTH 11 0
BBX 0 0 0 0
BITMAP
ENDCHAR
STARTCHAR 00F5
ENCODING 245
SWIDTH 495 0
DWIDTH 11 0
BBX 0 0 0 0
BITMAP
ENDCHAR
STARTCHAR 00F6
ENCODING 246
SWIDTH 495 0
DWIDTH 11 0
BBX 0 0 0 0
BITMAP
ENDCHAR
STARTCHAR 00F7
ENCODING 247
SWIDTH 495 0
DWIDTH 11 0
BBX 0 0 0 0
BITMAP
ENDCHAR
STARTCHAR 00F8
ENCODING 248
SWIDTH 495 0
DWIDTH 11 0
BBX 0 0 0 0
BITMAP
ENDCHAR
STARTCHAR 00F9
ENCODING 249
SWIDTH 495 0
DWIDTH 11 0
BBX 0 0 0 0
BITMAP
ENDCHAR
STARTCHAR 00FA
ENCODING 250
SWIDTH 495 0
DWIDTH 11 0
BBX 0 0 0 0
BITMAP
ENDCHAR
STARTCHAR 00FB
ENCODING 251
SWIDTH 495 0
DWIDTH 11 0
BBX 0 0 0 0
BITMAP
ENDCHAR
STARTCHAR 00FC
ENCODING 252
SWIDTH 495 0
DWIDTH 11 0
BBX 0 0 0 0
BITMAP
ENDCHAR
STARTCHAR 00FD
ENCODING 253
SWIDTH 405 0
DWIDTH 9 0
BBX 0 0 0 0
BITMAP
ENDCHAR
STARTCHAR 00FE
ENCODING 254
SWIDTH 495 0
DWIDTH 11 0
BBX 0 0 0 0
BITMAP
ENDCHAR
STARTCHAR 00FF
ENCODING 255
SWIDTH 405 0
DWIDTH 9 0
BBX 0 0 0 0
BITMAP
ENDCHAR
STARTCHAR 0131
ENCODING 305
SWIDTH 270 0
DWIDTH 6 0
BBX 0 0 0 0
BITMAP
ENDCHAR
STARTCHAR 02C6
ENCODING 710
SWIDTH 495 0
DWIDTH 11 0
BBX 0 0 0 0
BITMAP
ENDCHAR
STARTCHAR 02C7
ENCODING 711
SWIDTH 495 0
DWIDTH 11 0
BBX 0 0 0 0
BITMAP
ENDCHAR
STARTCHAR 02C9
ENCODING 713
SWIDTH 495 0
DWIDTH 11 0
BBX 0 0 0 0
BITMAP
ENDCHAR
STARTCHAR 02D8
ENCODING 728
SWIDTH 495 0
DWIDTH 11 0
BBX 0 0 0 0
BITMAP
ENDCHAR
STARTCHAR 02D9
ENCODING 729
SWIDTH 495 0
DWIDTH 11 0
BBX 0 0 0 0
BITMAP
ENDCHAR
STARTCHAR 02DA
ENCODING 730
SWIDTH 495 0
DWIDTH 11 0
BBX 0 0 0 0
BITMAP
ENDCHAR
STARTCHAR 02DB
ENCODING 731
SWIDTH 495 0
DWIDTH 11 0
BBX 0 0 0 0
BITMAP
ENDCHAR
STARTCHAR 02DC
ENCODING 732
SWIDTH 495 0
DWIDTH 11 0
BBX 0 0 0 0
BITMAP
ENDCHAR
STARTCHAR 02DD
ENCODING 733
SWIDTH 495 0
DWIDTH 11 0
BBX 0 0 0 0
BITMAP
ENDCHAR
STARTCHAR 037E
ENCODING 894
SWIDTH 945 0
DWIDTH 21 0
BBX 21 22 0 -4
BITMAP
003000
003000
003000
003000
003000
003000
003000
003000
003000
003000
FFFFF8
FFFFF8
003000
003000
003000
003000
003000
003000
003000
003000
003000
003000
ENDCHAR
STARTCHAR 2013
ENCODING 8211
SWIDTH 540 0
DWIDTH 12 0
BBX 0 0 0 0
BITMAP
ENDCHAR
STARTCHAR 2014
ENCODING 8212
SWIDTH 990 0
DWIDTH 22 0
BBX 0 0 0 0
BITMAP
ENDCHAR
STARTCHAR 2018
ENCODING 8216
SWIDTH 270 0
DWIDTH 6 0
BBX 0 0 0 0
BITMAP
ENDCHAR
STARTCHAR 2019
ENCODING 8217
SWIDTH 270 0
DWIDTH 6 0
BBX 0 0 0 0
BITMAP
ENDCHAR
STARTCHAR 201A
ENCODING 8218
SWIDTH 270 0
DWIDTH 6 0
BBX 0 0 0 0
BITMAP
ENDCHAR
STARTCHAR 201C
ENCODING 8220
SWIDTH 450 0
DWIDTH 10 0
BBX 0 0 0 0
BITMAP
ENDCHAR
STARTCHAR 201D
ENCODING 8221
SWIDTH 450 0
DWIDTH 10 0
BBX 0 0 0 0
BITMAP
ENDCHAR
STARTCHAR 201E
ENCODING 8222
SWIDTH 450 0
DWIDTH 10 0
BBX 0 0 0 0
BITMAP
ENDCHAR
STARTCHAR 2020
ENCODING 8224
SWIDTH 495 0
DWIDTH 11 0
BBX 0 0 0 0
BITMAP
ENDCHAR
STARTCHAR 2021
ENCODING 8225
SWIDTH 495 0
DWIDTH 11 0
BBX 0 0 0 0
BITMAP
ENDCHAR
STARTCHAR 2022
ENCODING 8226
SWIDTH 495 0
DWIDTH 11 0
BBX 0 0 0 0
BITMAP
ENDCHAR
STARTCHAR 2026
ENCODING 8230
SWIDTH 990 0
DWIDTH 22 0
BBX 0 0 0 0
BITMAP
ENDCHAR
STARTCHAR 2039
ENCODING 8249
SWIDTH 315 0
DWIDTH 7 0
BBX 0 0 0 0
BITMAP
ENDCHAR
STARTCHAR 203A
ENCODING 8250
SWIDTH 315 0
DWIDTH 7 0
BBX 0 0 0 0
BITMAP
ENDCHAR
STARTCHAR 2044
ENCODING 8260
SWIDTH 180 0
DWIDTH 4 0
BBX 0 0 0 0
BITMAP
ENDCHAR
STARTCHAR 20A3
ENCODING 8355
SWIDTH 495 0
DWIDTH 11 0
BBX 0 0 0 0
BITMAP
ENDCHAR
STARTCHAR 20A4
ENCODING 8356
SWIDTH 495 0
DWIDTH 11 0
BBX 0 0 0 0
BITMAP
ENDCHAR
STARTCHAR 20A7
ENCODING 8359
SWIDTH 990 0
DWIDTH 22 0
BBX 0 0 0 0
BITMAP
ENDCHAR
STARTCHAR 20AC
ENCODING 8364
SWIDTH 495 0
DWIDTH 11 0
BBX 0 0 0 0
BITMAP
ENDCHAR
STARTCHAR 2116
ENCODING 8470
SWIDTH 1080 0
DWIDTH 24 0
BBX 0 0 0 0
BITMAP
ENDCHAR
STARTCHAR 2122
ENCODING 8482
SWIDTH 720 0
DWIDTH 16 0
BBX 0 0 0 0
BITMAP
ENDCHAR
STARTCHAR 2202
ENCODING 8706
SWIDTH 495 0
DWIDTH 11 0
BBX 0 0 0 0
BITMAP
ENDCHAR
STARTCHAR 2206
ENCODING 8710
SWIDTH 540 0
DWIDTH 12 0
BBX 0 0 0 0
BITMAP
ENDCHAR
STARTCHAR 220F
ENCODING 8719
SWIDTH 720 0
DWIDTH 16 0
BBX 0 0 0 0
BITMAP
ENDCHAR
STARTCHAR 2211
ENCODING 8721
SWIDTH 585 0
DWIDTH 13 0
BBX 0 0 0 0
BITMAP
ENDCHAR
STARTCHAR 2212
ENCODING 8722
SWIDTH 495 0
DWIDTH 11 0
BBX 0 0 0 0
BITMAP
ENDCHAR
STARTCHAR 2215
ENCODING 8725
SWIDTH 180 0
DWIDTH 4 0
BBX 0 0 0 0
BITMAP
ENDCHAR
STARTCHAR 2219
ENCODING 8729
SWIDTH 225 0
DWIDTH 5 0
BBX 0 0 0 0
BITMAP
ENDCHAR
STARTCHAR 221A
ENCODING 8730
SWIDTH 495 0
DWIDTH 11 0
BBX 0 0 0 0
BITMAP
ENDCHAR
STARTCHAR 221E
ENCODING 8734
SWIDTH 495 0
DWIDTH 11 0
BBX 0 0 0 0
BITMAP
ENDCHAR
STARTCHAR 222B
ENCODING 8747
SWIDTH 315 0
DWIDTH 7 0
BBX 0 0 0 0
BITMAP
ENDCHAR
STARTCHAR 2248
ENCODING 8776
SWIDTH 495 0
DWIDTH 11 0
BBX 0 0 0 0
BITMAP
ENDCHAR
STARTCHAR 2264
ENCODING 8804
SWIDTH 495 0
DWIDTH 11 0
BBX 0 0 0 0
BITMAP
ENDCHAR
STARTCHAR 2265
ENCODING 8805
SWIDTH 495 0
DWIDTH 11 0
BBX 0 0 0 0
BITMAP
ENDCHAR
STARTCHAR F001
ENCODING 61441
SWIDTH 540 0
DWIDTH 12 0
BBX 0 0 0 0
BITMAP
ENDCHAR
STARTCHAR F002
ENCODING 61442
SWIDTH 540 0
DWIDTH 12 0
BBX 0 0 0 0
BITMAP
ENDCHAR
STARTCHAR FB01
ENCODING 64257
SWIDTH 540 0
DWIDTH 12 0
BBX 0 0 0 0
BITMAP
ENDCHAR
STARTCHAR FB02
ENCODING 64258
SWIDTH 540 0
DWIDTH 12 0
BBX 0 0 0 0
BITMAP
ENDCHAR
ENDFONT
